<?xml version="1.0" standalone="no"?>
<!DOCTYPE svg PUBLIC "-//W3C//DTD SVG 20010904//EN"
 "http://www.w3.org/TR/2001/REC-SVG-20010904/DTD/svg10.dtd">
<svg version="1.0" xmlns="http://www.w3.org/2000/svg"
 width="1080.000000pt" height="1080.000000pt" viewBox="0 0 1080.000000 1080.000000"
 preserveAspectRatio="xMidYMid meet">

<g transform="translate(0.000000,1080.000000) scale(0.100000,-0.100000)"
fill="#000000" stroke="none">
<path d="M10034 10358 c-225 -220 -722 -713 -1104 -1094 -382 -381 -708 -698
-723 -703 -19 -7 -777 -11 -2367 -11 -2532 -1 -2372 -4 -2431 52 -33 31 -1017
1261 -1194 1493 -154 200 -228 282 -295 325 -150 96 -350 93 -506 -8 -81 -53
-139 -119 -182 -210 l-37 -77 1 -345 c2 -898 83 -1514 274 -2080 89 -264 191
-468 335 -669 44 -61 69 -106 72 -130 3 -24 -19 -137 -71 -351 -107 -449 -173
-734 -264 -1140 -142 -632 -147 -664 -146 -1045 0 -222 4 -317 18 -405 28
-189 30 -224 14 -238 -8 -6 -102 -30 -209 -51 -107 -22 -233 -52 -282 -66
-214 -62 -687 -250 -794 -316 -38 -23 -83 -51 -100 -61 -18 -11 -33 -24 -33
-29 0 -12 147 -226 161 -235 6 -3 81 30 167 74 210 107 381 181 532 231 221
72 618 158 650 141 9 -5 49 -80 89 -167 172 -373 260 -508 470 -722 83 -85
151 -157 151 -160 0 -3 -37 -28 -82 -55 -214 -127 -524 -342 -708 -490 -272
-219 -625 -573 -825 -827 l-44 -56 117 -83 c64 -45 121 -84 127 -86 5 -2 60
53 120 123 344 397 581 615 973 895 148 105 474 311 529 335 71 29 113 21 266
-55 264 -131 442 -191 766 -256 131 -27 181 -41 205 -59 17 -14 123 -106 235
-206 179 -161 734 -640 986 -852 124 -104 236 -186 332 -243 330 -193 716
-238 1072 -124 149 47 187 66 707 349 100 55 190 99 199 99 9 0 65 -49 123
-109 90 -92 119 -115 184 -145 224 -106 460 -79 654 75 35 27 326 319 648 648
491 503 586 605 597 640 11 35 9 60 -14 188 -15 82 -38 222 -53 313 -31 198
-34 189 83 335 196 245 933 1195 952 1226 27 43 26 62 -4 216 -14 71 -61 360
-105 643 -44 283 -137 859 -206 1280 -69 421 -129 794 -133 830 -9 69 5 183
98 800 38 250 293 2051 381 2690 22 162 43 310 46 328 4 17 2 32 -3 32 -5 0
-194 -181 -419 -402z m-8294 -193 c16 -8 148 -166 311 -372 482 -610 1195
-1497 1223 -1523 l28 -25 1229 -3 1229 -2 0 -2225 0 -2225 -647 -2 -648 -3
125 -130 c68 -71 354 -366 635 -654 280 -288 515 -533 522 -545 9 -15 12 -97
13 -288 0 -267 0 -268 -22 -282 -13 -7 -192 -44 -398 -80 -381 -68 -450 -82
-450 -93 0 -9 53 -288 55 -291 1 -2 182 29 401 68 220 38 402 70 407 70 4 0 7
-220 7 -490 0 -357 -3 -490 -11 -490 -44 0 -202 48 -271 83 -180 91 -555 397
-1348 1103 -168 149 -319 278 -335 286 -17 9 -77 23 -135 32 -255 42 -550 126
-715 205 l-80 38 70 33 c183 84 661 256 768 275 20 4 40 11 42 16 5 6 -62 284
-71 297 -1 2 -59 -13 -130 -33 -144 -41 -317 -106 -705 -265 -147 -61 -278
-110 -292 -110 -69 0 -322 256 -452 458 -54 84 -212 387 -225 431 -8 28 -7 29
33 35 183 25 528 32 1142 22 l80 -1 14 143 c9 92 11 146 4 153 -5 5 -143 14
-307 20 -308 11 -648 3 -920 -22 -118 -11 -130 -11 -141 5 -15 20 -40 176 -56
346 -16 169 -6 476 21 655 28 183 190 912 395 1775 53 223 119 508 146 635 41
189 111 484 256 1076 14 58 14 69 1 95 -18 37 -653 875 -889 1174 -58 74 -114
150 -123 168 -15 28 -17 58 -14 190 3 177 16 217 78 260 39 26 106 30 150 7z
m8253 -309 c5 -12 -54 -472 -82 -643 -17 -107 -1 -85 -380 -523 -108 -124
-242 -276 -298 -339 -57 -63 -106 -126 -110 -140 -8 -33 28 -133 317 -871 164
-419 168 -430 205 -680 55 -363 342 -2137 381 -2355 21 -117 34 -216 31 -238
-3 -25 -21 -59 -49 -95 -532 -685 -652 -836 -701 -884 -31 -32 -61 -58 -65
-58 -8 0 -54 272 -178 1060 -41 261 -80 487 -86 502 -7 18 -18 28 -31 28 -45
0 -287 -44 -287 -52 0 -8 179 -1132 290 -1818 27 -168 68 -399 91 -515 37
-186 40 -215 30 -252 -10 -35 -39 -70 -169 -200 -87 -87 -333 -339 -548 -561
-442 -458 -442 -457 -574 -457 -122 1 -162 27 -332 222 -156 178 -238 268
-767 846 -256 279 -467 514 -469 520 -2 8 146 85 378 196 209 101 380 187 380
192 0 13 -373 416 -679 732 -98 102 -171 186 -182 211 -18 40 -19 113 -19
2299 l0 2257 1126 0 1126 0 652 648 c359 356 723 722 811 815 87 92 164 167
171 167 6 0 14 -6 17 -14z"/>
<path d="M3442 7060 c-88 -23 -142 -47 -216 -94 -31 -20 -89 -52 -128 -72
-106 -52 -118 -66 -118 -131 0 -111 57 -318 126 -455 206 -412 571 -655 1079
-719 111 -14 423 -17 528 -5 85 10 86 3 11 -96 -248 -328 -594 -617 -981 -821
-62 -32 -113 -61 -113 -65 0 -5 138 -261 146 -271 7 -8 327 177 474 274 445
295 790 682 944 1057 25 60 36 102 36 137 0 59 -18 88 -234 370 -218 286 -314
386 -571 603 -197 165 -358 244 -588 289 -129 25 -296 25 -395 -1z"/>
<path d="M7400 6556 c-770 -345 -820 -368 -820 -378 0 -8 20 -31 269 -309 96
-107 188 -202 205 -211 29 -17 98 -18 1068 -18 570 0 1039 4 1042 8 2 4 -50
66 -116 138 -67 71 -295 323 -507 559 -440 490 -454 505 -472 505 -8 0 -309
-133 -669 -294z"/>
<path d="M8250 2509 c-94 -38 -128 -163 -63 -239 53 -64 147 -83 214 -44 107
63 107 222 -1 276 -38 20 -110 23 -150 7z"/>
<path d="M7380 2332 c-40 -21 -80 -90 -80 -137 1 -47 35 -112 72 -135 46 -28
128 -27 179 2 67 38 98 133 64 198 -40 77 -158 114 -235 72z"/>
<path d="M7791 1738 c-58 -39 -76 -72 -76 -138 0 -62 16 -95 66 -133 63 -46
176 -26 227 41 22 29 27 46 27 93 0 93 -55 150 -152 157 -48 3 -64 0 -92 -20z"/>
</g>
</svg>
